<svg xmlns="http://www.w3.org/2000/svg" width="256" height="256"><path fill-opacity=".165" d="M0 128.004v128.004l128.25-.254 128.25-.254.254-127.75L257.008 0H0v128.004m.485.496c0 70.4.119 99.053.265 63.672.146-35.38.146-92.98 0-128C.604 29.153.485 58.1.485 128.5" fill="#1976D2" fill-rule="evenodd"/><path fill-opacity=".023" d="M3 1.037l3.5.7-3.255.131L-.01 2l.05 46.031c.032 28.962.405 45.812 1.005 45.441.525-.325.987-1.351 1.025-2.281.058-1.379.229-1.321.93.309.735 1.71.87 1.746.93.25.038-.963.472-1.75.963-1.75s1.161-.698 1.489-1.552c.341-.89.173-1.291-.393-.941-.544.336-.989.134-.989-.448C5 86.408 7.888 86 12.5 86c6.886 0 9.37.961 6.25 2.417-1 .466-1 .7 0 1.166.687.321 1.25 1.42 1.25 2.441 0 1.022.422 2.119.939 2.438.516.319.726 1.583.466 2.809-.259 1.226-.525 3.466-.59 4.979-.066 1.513-.618 2.75-1.227 2.75-1.152 0-3.679 3.432-3.494 4.746.058.415.511.642 1.006.504 1.416-.393 1.058.384-.85 1.845-.963.736-1.419.948-1.016.471.404-.478-.046-1.461-1-2.185-2.212-1.68-3.558-1.747-2.646-.131.564 1 .436 1-.641 0-.741-.687-2.269-1.253-3.397-1.256-2.373-.008-5.55-4.915-5.55-8.575C2 99.089 1.56 98 1.021 98c-.63 0-.989 28.158-1.009 79l-.03 79h48.231c44.509 0 48.056-.124 45.946-1.601-2.147-1.504-4.679-5.986-4.32-7.649.088-.412-.278-.75-.814-.75-1.414 0-.048-6.158 1.851-8.343 2.712-3.12 5.08-3.851 10.194-3.147 6.871.945 9.437 3.795 9.052 10.055-.228 3.694-.945 5.412-3.208 7.674-1.602 1.603-2.914 3.105-2.914 3.338 0 .233 4.388.387 9.75.344 5.362-.043 9.188-.306 8.5-.583-.688-.278-1.25-1.142-1.25-1.921 0-.78-.477-1.417-1.059-1.417s-.774-.461-.426-1.025c.349-.563.105-.901-.541-.75-1.631.382-2.201-5.668-.966-10.256 1.117-4.145 4.35-5.969 10.582-5.969 1.811 0 3.606-.508 3.989-1.128.477-.772.986-.614 1.609.5.501.895 1.837 1.628 2.969 1.628 1.364 0 1.874.477 1.513 1.417-.299.78.126 1.675.945 1.989.95.364 1.233.157.782-.572-.388-.629-.271-.874.26-.546.85.525 1.022 5.265.503 13.851-.108 1.781-.694 2.594-1.802 2.5-.904-.076-1.831.394-2.062 1.046-.268.757.686 1.153 2.642 1.098l3.062-.087v-8.226c0-6.091.389-8.548 1.5-9.47.825-.685 1.507-2.202 1.515-3.372.013-1.741.192-1.855.985-.628.784 1.213.972 1.069.985-.75.008-1.238.451-2.25.984-2.25.532 0 .673.787.312 1.75-.559 1.492-.422 1.56.93.462 2.108-1.713 5.789-2.369 5.789-1.032 0 .673.552.607 1.5-.18 1.002-.832 1.915-.92 2.75-.267 1.979 1.549 5.62 2.156 6.005 1.002.193-.578 1.3-1.197 2.461-1.374 2.059-.314 2.105-.022 1.926 12.159-.101 6.864.163 12.48.587 12.48.647 0 1.353-19.843.846-23.75-.171-1.314.151-1.348 17.175-1.81l9.75-.264.111 6.662c.061 3.664.028 7.674-.072 8.912-.1 1.237.3 2.25.889 2.25.683 0 1.072-3.266 1.072-9 0-8.3.525-10.141 2.367-8.299.386.385 3.048.817 5.917.961 2.869.143 7.128.458 9.466.7 2.503.259 4.25.021 4.25-.578 0-.559.878-.788 1.952-.507 1.074.281 2.163-.004 2.421-.633s.505 4.565.548 11.543l.079 12.686-3.25.404c-2.464.305-2.087.442 1.559.563 3.522.117 4.61-.162 4.065-1.043-.409-.662-.702-3.925-.65-7.25l.184-11.797L230 230l6.75-.079c7.695-.09 7.355-.676-.65-1.121-4.723-.262-5.444-.583-5.744-2.55-.189-1.238.029-2.25.483-2.25.953 0 .886-3.019-.103-4.618-.368-.595-.655-4.961-.637-9.701l.032-8.619 11.684-.316 11.685-.316-11.75-.215L230 200l-.061-9.25c-.033-5.088-.155-11.388-.272-14l-.211-4.75 4.022-.168 4.022-.168-3.75-.392c-2.415-.253-3.75-.905-3.75-1.832 0-.792-.498-1.44-1.107-1.44s-.849.673-.533 1.495c.478 1.247-.504 1.455-5.906 1.25-4.989-.189-6.135-.498-4.982-1.344.823-.604 1.204-1.392.846-1.75-.358-.358-.126-.651.515-.651.642 0 1.167-.606 1.167-1.346 0-.741.709-2.768 1.576-4.506 1.276-2.557 1.361-3.808.449-6.573-1.403-4.252-2.896-5.517-7.358-6.242-3.672-.596-9.667 1.37-9.667 3.171 0 .558-.911 1.584-2.025 2.279-1.974 1.233-2.021 1.063-1.878-6.804.081-4.438-.133-8.348-.475-8.69-.342-.343-.622.353-.622 1.544 0 1.861-.564 2.167-4 2.167-2.816 0-4-.427-4-1.441 0-1.914 1.712-2.909 2.265-1.315.239.691.763-.207 1.164-1.994.402-1.787 1.171-3.25 1.709-3.25.539 0 .776-.338.526-.75s.147-1.305.882-1.984c1.092-1.009 1.406-.555 1.726 2.5.216 2.054.389-.091.385-4.766-.003-4.675-.18-6.559-.392-4.187-.412 4.606-2.333 5.351-2.926 1.134-.415-2.953-6.258-8.638-9.79-9.524-1.402-.352-3.68-.356-5.062-.009-3.081.773-8.734 6.499-8.086 8.189.26.677-.126 1.461-.857 1.742-1.078.414-1.348-3.446-1.426-20.418-.073-16.017.195-20.931 1.143-20.942.968-.012.972-.185.02-.79-.827-.525-1.319-4.937-1.532-13.735-.173-7.128-.412 12.569-.532 43.771L171 170.963l-13.75-.232-13.75-.231-.235-18.75c-.129-10.312.045-18.75.386-18.75s1.767 1.237 3.168 2.75c1.402 1.512 2.804 2.766 3.115 2.785.311.02 1.691.683 3.066 1.473l2.5 1.438-3.5.645c-2.58.476-1.55.68 3.917.777 4.079.073 7.163-.122 6.852-.432-.31-.31-1.944-.603-3.632-.651-3.501-.1-3.233-1.785.285-1.785 2.971 0 10.117-5.549 8.462-6.572-.845-.522-.641-1.132.71-2.12 1.248-.913 1.523-1.63.802-2.097-.601-.391-1.087-1.449-1.078-2.352.026-2.793-2.49-7.859-3.904-7.859-1.108 0-3.414-2.864-3.414-4.239 0-.203 1.899-.482 4.22-.619 5.228-.308 6.385-1.142 1.585-1.142-3.163 0-3.481-.243-3.079-2.348.247-1.291 1.535-3.611 2.862-5.155 2.788-3.246 2.948-4.381.995-7.053-1.001-1.368-1.112-2.307-.378-3.191.728-.877.703-1.253-.083-1.253-.617 0-1.122-.645-1.122-1.433s-.877-1.711-1.949-2.051c-1.072-.34-2.235-1.519-2.584-2.62-.538-1.694-.878-1.801-2.214-.699-1.322 1.092-1.499 1.059-1.088-.197.295-.905 2.023-1.628 4.355-1.822 2.455-.204 3.391-.615 2.566-1.125-1.522-.94-.713-4.284 1.595-6.591 2.291-2.292 3.404-8.316 1.994-10.795-1.942-3.413-3.978-5.222-7.916-7.033-3.178-1.46-4.346-1.538-7.75-.518-2.205.66-4.009 1.606-4.009 2.101 0 .496-.384.664-.854.373-.469-.29-1.4.673-2.068 2.139-.975 2.138-1.397 2.38-2.131 1.219-.504-.796-.923-3.164-.932-5.262L143 55.872l9.25.396c5.088.218 10.6.075 12.25-.318 1.783-.424-1.969-.761-9.25-.832L143 55v-4.441c0-5.634 1.485-6.624 3.127-2.085.785 2.171 1.544 3.058 1.994 2.33.557-.9 1.058-.9 2.145.002.78.647 1.786.843 2.235.435.45-.407.56-.02.246.862-.562 1.576.844 1.776 5.253.747 2.873-.671 6.895-6.116 7.916-10.717.972-4.387.882-4.762-1.695-7.062-1.496-1.337-2.609-2.799-2.471-3.25.137-.452-.425-.821-1.25-.821s-1.5-.505-1.5-1.122c0-.732-.589-.645-1.692.25-1.15.932-1.451.971-.941.122.506-.843.061-1.25-1.367-1.25-1.165 0-1.84.45-1.5 1 .876 1.417-.839 1.242-2.447-.25-1.086-1.008-1.197-.987-.572.112.99 1.739-1.619 3.519-2.689 1.835-.51-.802-.766-.6-.777.612-.009 1.111-.461 1.534-1.17 1.096-.655-.405-.885-.278-.532.293.343.554-.023 1.861-.813 2.905-1.308 1.727-1.439 1.427-1.468-3.353L143 28h10.667c5.866 0 10.4-.266 10.076-.591-.325-.325-5.125-.581-10.667-.569L143 26.862V0l-3.25.15c-3.025.139-3.06.179-.5.566l2.75.417V27h-13.927c-12.422 0-13.976-.189-14.384-1.75-.432-1.653-.463-1.653-.573-.01-.105 1.568-1.506 1.736-14.142 1.696l-14.025-.045.143-8.402C85.218 11.057 86.579 1.06 86.928 5c.098 1.11.44.979 1.314-.5 1.688-2.86 1.784-4.5.263-4.5-.829 0-1.122.748-.791 2.015.398 1.522.146 1.868-1.03 1.417-.857-.329-1.313-1.235-1.014-2.015.305-.793-.053-1.418-.813-1.419-1.091-.001-1.297 2.648-1.053 13.5L84.108 27H70.671c-15.277 0-14.52.482-14.124-9.001.302-7.209.248-6.999 1.786-6.999.734 0 1.334-.675 1.334-1.5s-.6-1.5-1.334-1.5c-.733 0-1.326-.787-1.318-1.75.011-1.249.243-1.392.809-.5.627.988 1.192.959 2.693-.139 1.045-.764 2.593-1.177 3.441-.918 1.02.311.877-.071-.424-1.13-1.868-1.519-1.793-1.566 1.5-.923 1.906.373 3.617 1.058 3.801 1.524.185.466 1.197-.168 2.25-1.408C72.912.602 73.062.582 74.403 2.31c.889 1.145 1.645 1.421 2.06.75.36-.583.152-1.06-.463-1.06s-.873-.396-.574-.881c.302-.488-5.482-.934-13-1-8.81-.078-13.329.23-12.926.88.34.551.168 1.001-.382 1.001s-1.251-.406-1.557-.901C47.254.602 36.357.229 23.252.268 10.188.306 1.075.652 3 1.037m75.079.546c.048 1.165.285 1.402.604.605.289-.722.253-1.585-.079-1.917-.332-.332-.568.258-.525 1.312m12.921 0c0 1.766 2.153 1.459 2.771-.396C93.989.534 93.454 0 92.583 0 91.713 0 91 .712 91 1.583m5.762-.876c1.244.239 3.044.23 4-.02S100.7.241 98.5.252c-2.2.011-2.982.216-1.738.455m7.507-.014c.973.254 2.323.237 3-.037.677-.274-.119-.481-1.769-.461-1.65.02-2.204.244-1.231.498m8.94 9.557l.21 10.25.326-9.683c.274-8.136.6-9.756 2.04-10.134 1.248-.328 1.102-.483-.535-.567-2.207-.114-2.246.078-2.041 10.134M145.25.689c.963.252 2.537.252 3.5 0 .963-.251.175-.457-1.75-.457s-2.713.206-1.75.457m8 0c.963.252 2.537.252 3.5 0 .963-.251.175-.457-1.75-.457s-2.713.206-1.75.457m17.563-.006c.721.289 1.584.253 1.916-.079.332-.332-.258-.568-1.312-.525-1.165.048-1.402.285-.604.604M255.328 6.5c.005 3.85.185 5.302.402 3.228.216-2.075.213-5.225-.008-7-.221-1.776-.398-.078-.394 3.772M41 3.878C41 4.495 39.897 5 38.55 5c-1.348 0-2.81.596-3.25 1.325-.44.729-1.58 1.612-2.533 1.963-1.051.385-1.501 1.242-1.143 2.174.324.846.092 1.538-.517 1.538S30 12.702 30 13.559s-.419 1.3-.931.984c-.512-.317-1.213-.118-1.559.441-.345.559-.238 1.016.238 1.016.477 0 2.329 2.074 4.116 4.61 1.787 2.535 3.52 4.339 3.851 4.009.33-.331 1.092-.218 1.693.252C39.069 26.169 44 27.153 44 26.186c0-.469.655-.853 1.456-.853.801 0 1.284.279 1.073.619-.21.341 1.61.706 4.044.812l4.427.193v-5.42c0-2.98-.45-5.697-1-6.037-.55-.34-1-1.068-1-1.618s.45-.722 1-.382c.595.368 1-.823 1-2.941 0-3.862-.215-4.049-2.965-2.578-1.602.858-1.807.605-1.627-2 .234-3.372.216-3.385-2.601-1.878-1.583.847-2.26.789-2.919-.25-.717-1.132-.86-1.129-.873.019-.012 1.107-.306 1.132-1.515.128-1.036-.86-1.5-.898-1.5-.122m40.446 1.209c-.369.598-.194 1.565.39 2.149.749.749 1.014.429.9-1.087-.184-2.446-.35-2.583-1.29-1.062M199.195 6.5c.02 1.65.244 2.204.498 1.231.254-.973.237-2.323-.037-3-.274-.677-.481.119-.461 1.769M11 5.892c0 .49-1.112 1.17-2.471 1.511-3.137.788-4.911 3.996-5.03 9.097-.065 2.79.455 4.399 1.72 5.318.998.726 1.559 1.733 1.246 2.239-.313.506.129.652.983.325.854-.328 1.552-.128 1.552.445 0 .94 4.859.647 5.859-.353.222-.222 1.235.041 2.25.584 1.507.807 1.73.686 1.214-.659-.385-1.003.015-2.008 1.023-2.572.909-.51 1.654-1.813 1.654-2.896 0-1.603.466-1.852 2.511-1.339 2.075.521 2.399.336 1.861-1.065-.517-1.348-.823-1.422-1.496-.361-.633.999-.888.831-1.013-.666-.092-1.1-.218-2.502-.28-3.114-.181-1.786-2.727-4.415-3.696-3.816-.488.301-.887.144-.887-.35C18 7.302 13.676 5 11.953 5c-.524 0-.953.401-.953.892m47.257 17.871c.093 1.23.523 2.237.956 2.237 1.043 0 .972-1.159-.184-2.987-.739-1.169-.904-1.009-.772.75m112.822-.18c.048 1.165.285 1.402.604.605.289-.722.253-1.585-.079-1.917-.332-.332-.568.258-.525 1.312M170 27c-1.282.828-1.246.972.25.985.963.008 1.75-.435 1.75-.985 0-1.22-.113-1.22-2 0m35.416.132c-2.788.604-2.806.642-.416.868 1.375.13 2.95.177 3.5.104.55-.073.126.549-.941 1.382-1.068.832-2.305 1.514-2.75 1.514-.445 0-.809.675-.809 1.5 0 1.447-1.118 1.916-3.75 1.575-.889-.116-1.25 1.726-1.25 6.381 0 6.308 1.401 8.93 2.294 4.294.372-1.929.453-1.858.57.5.075 1.513.586 2.75 1.136 2.75.55 0 1 .45 1 1 0 1.211 3.222 4.54 5.125 5.296.756.3-.425.589-2.625.64-5.474.129-2.539 2.028 3.167 2.049 2.384.008 4.382.55 4.671 1.265.403 1 .52 1 .583 0 .049-.779 1.588-1.25 4.079-1.25 4.044 0 5.474-1.468 2.25-2.311-1.398-.365-1.432-.48-.169-.573.87-.064 2.201-1.353 2.959-2.866 2.594-5.179 3.356-5.762 4.093-3.133.367 1.311.706-2.117.752-7.617.05-5.953-.265-9.449-.778-8.639-.474.748-.659 2.323-.41 3.5.377 1.786.068 1.647-1.873-.84-1.278-1.638-2.099-3.081-1.824-3.207.275-.125-.4-.934-1.5-1.796-1.896-1.487-1.782-1.556 2.207-1.334 2.314.129 4.527-.085 4.917-.475.39-.39-2.178-.738-5.707-.773-3.529-.035-8.48-.147-11.001-.25-2.521-.102-5.896.098-7.5.446m-6.416.927c0 .582.45.781 1 .441s1-.816 1-1.059-.45-.441-1-.441-1 .477-1 1.059m-126 .468C73 29.754 79.439 36 80.705 36c.76 0 1.25.741 1.089 1.646-.162.906.381 1.84 1.206 2.076 1.212.348 1.24.248.143-.521-.948-.665-1.023-1.157-.25-1.635.609-.376 1.107-2.682 1.107-5.125V28h-5.5c-3.025 0-5.5.237-5.5.527m12 2.366c0 4.119 2.671 4.801 5.574 1.422 1.771-2.06 3.187-2.69 5.879-2.613 1.951.055 3.547-.305 3.547-.801 0-.496-3.375-.901-7.5-.901H85v2.893m16-1.286c0 .942.561 1.392 1.357 1.086.746-.286 2.659.338 4.25 1.387 1.591 1.049 2.578 1.91 2.194 1.913-.384.004-.071 1.511.697 3.349 2.083 4.985 1.1 9.616-2.829 13.322-1.85 1.746-4.67 3.368-6.266 3.605-1.597.237.584.499 4.847.581L113 55V28h-6c-4.844 0-6 .31-6 1.607m13 1.768c0 4.353 1.057 9.625 1.931 9.625.374 0 .655-1.237.625-2.75-.033-1.61.437-2.655 1.133-2.52.654.126 1.474-.668 1.822-1.765.348-1.097 1.02-1.755 1.493-1.463.472.292 1.452-.264 2.178-1.235 1.313-1.761 5.291-2.841 4.248-1.154-.485.785 1.699 1.35 3.85.995 1.755-.289 6.72 3.054 6.72 4.525 0 1.031.55 1.37 1.582.974.87-.334 1.77-.607 2-.607.23 0 .418-1.8.418-4v-4h-28v3.375m-94.541-1.308c-.363.586-.445 1.281-.183 1.543s.743-.218 1.069-1.067c.676-1.762.1-2.072-.886-.476M10 30.878C10 31.495 9.401 32 8.669 32S6.7 33.237 5.921 34.75c-.78 1.513-1.745 2.995-2.145 3.294-.399.299-.85 1.649-1.001 3-.151 1.351-.725 2.787-1.275 3.191-.619.455-.524.74.25.75C2.438 44.993 3 45.9 3 47s.365 2 .811 2c.447 0 1.803.923 3.013 2.051 1.211 1.128 2.759 1.77 3.439 1.426.68-.344.439.028-.536.826-1.684 1.378-1.672 1.478.25 1.981 1.113.291 2.023.132 2.023-.353 0-.484 1.401-.601 3.114-.258 2.865.573 3.058.445 2.413-1.589-.564-1.777-.347-2.15 1.105-1.898 1.427.248 2.057-.739 2.992-4.686.651-2.75 1.227-5.719 1.28-6.597.114-1.901-2.699-5.28-5.154-6.191-.962-.357-1.75-1.099-1.75-1.649s-.681-.739-1.513-.42c-.832.32-2.182.025-3-.654-1.033-.857-1.487-.891-1.487-.111m189 .563c0 .857.45 1.559 1 1.559s1-.423 1-.941-.45-1.219-1-1.559c-.55-.34-1 .084-1 .941m-15.377.664c-3.905 1.072-6.956 4.575-6.956 7.988 0 1.551-.375 2.587-.834 2.304-.458-.283-.833.213-.833 1.103s.45 1.34 1 1c.55-.34 1-.121 1 .486 0 .608 1.105 2.209 2.455 3.559 5.629 5.63 15.583.998 15.512-7.218-.055-6.268-5.62-10.792-11.344-9.222m-12.28 7.395c.003 4.4.179 6.076.39 3.724.212-2.352.209-5.952-.006-8s-.388-.124-.384 4.276m-31.714.603c-.341 1.706-.378 3.494-.083 3.972.296.478-1.394 2.852-3.754 5.276-4.862 4.992-7.775 5.584-14.292 2.902-5.149-2.119-4.993-1.954-3.52-3.729.865-1.042.91-1.524.142-1.524-.617 0-1.122-.9-1.122-2 0-1.111-.667-2-1.5-2-1.167 0-1.5 1.333-1.5 6v6h28.101l-.182-9c-.184-9.096-1.151-11.588-2.29-5.897M81.5 43c-.34.55-.141 1 .441 1S83 43.55 83 43s-.198-1-.441-1-.719.45-1.059 1m-.194 2.715c-.656.228-.96 1.024-.673 1.77.329.858-.334 1.478-1.807 1.689-1.683.241-2.267.916-2.112 2.444.182 1.787-.24 2.058-2.75 1.766-1.63-.19-2.964.096-2.964.636s2.92.98 6.5.98H84l-.015-3.75c-.018-4.251-.933-6.142-2.679-5.535m4.444 2.862c-.412.416-.75 2.031-.75 3.59 0 2.729.174 2.829 4.75 2.717 2.612-.064 3.963-.322 3-.573-.963-.252-1.75-.844-1.75-1.317s-.871-1.136-1.936-1.474c-1.064-.338-2.077-1.308-2.25-2.157-.173-.848-.652-1.202-1.064-.786m85.329 1.006c.048 1.165.285 1.402.604.605.289-.722.253-1.585-.079-1.917-.332-.332-.568.258-.525 1.312m-147 1c.048 1.165.285 1.402.604.605.289-.722.253-1.585-.079-1.917-.332-.332-.568.258-.525 1.312m31.936.667c.009.688.488 1.925 1.066 2.75.822 1.174.913 1.011.417-.75-.372-1.323-.193-2.25.435-2.25.587 0 1.067.9 1.067 2 0 1.619.667 2 3.5 2 2.972 0 3.495-.339 3.468-2.25-.029-2.084-.13-2.121-1.36-.5-1.744 2.298-3.289 2.214-4.608-.25-1.178-2.201-4.009-2.734-3.985-.75M68 53c-1.282.828-1.246.972.25.985.963.008 1.75-.435 1.75-.985 0-1.22-.113-1.22-2 0m131.5 3c-.34.55-.141 1 .441 1S201 56.55 201 56s-.198-1-.441-1-.719.45-1.059 1m-124.198.794c-3.379.254-4.077.629-3.58 1.925.411 1.071.227 1.367-.552.886-.644-.398-1.17-.198-1.17.443s.661.912 1.468.603c.807-.31 1.738-.126 2.069.409.331.535 1.068.684 1.639.331.69-.426.639-.887-.153-1.377-.859-.531-.753-.904.381-1.339.865-.332 1.524-.282 1.466.111-.317 2.123.319 3.216 1.88 3.229 1.281.012 1.407.233.472.827-.932.591-.621 1.111 1.15 1.918 1.336.608 2.698.836 3.028.506.871-.87.738-8.252-.15-8.343-.412-.042-1.425-.159-2.25-.261-.825-.102-3.389-.043-5.698.132m12.07.206c-1.344.359-1.935 1.546-2.096 4.207-.264 4.367 1.38 6.01 2.31 2.307.548-2.184.877-2.377 2.203-1.291 1.336 1.095 1.481.98 1.021-.808-.458-1.781-.17-2.015 1.975-1.605 1.946.372 2.327.166 1.692-.915-.452-.767.128-.563 1.288.453 1.16 1.016 2.55 1.576 3.088 1.243 1.398-.864 5.227.852 8.174 3.665 4.053 3.867 5.46 3.184 5.789-2.81l.286-5.221-11.929.137c-6.56.076-12.771.363-13.801.638m27.799 0c-1.018.759-1.172 6-.177 6 .479 0 1.157-.9 1.506-2s1.392-2.057 2.317-2.128c.926-.07 2.707-.234 3.958-.364 1.251-.131 2.515.152 2.809.627.851 1.377 2.613 1.001 1.803-.385-.402-.687.169-.462 1.27.5 1.1.962 2.753 1.75 3.672 1.75s1.671.45 1.671 1 .689 1 1.531 1c.843 0 1.791.675 2.107 1.5.317.825 1.251 1.5 2.076 1.5.922 0 1.278.578.924 1.5-.316.825-.139 1.5.393 1.5.533 0 .969-2.85.969-6.333v-6.334l-13.079.084c-7.194.046-13.381.308-13.75.583M9.992 58.75c-.794 1.253-1.257 1.395-1.633.5C7.628 57.511 6 57.683 6 59.5c0 .825-.45 1.5-1 1.5s-1 .862-1 1.917c0 1.054-.433 2.066-.963 2.25-1.772.613-1.981 7.883-.326 11.354 1.74 3.648 3.658 4.587 10.004 4.896 2.807.137 4.392-.254 4.743-1.169.29-.756.933-1.124 1.428-.818.851.526 1.706-1.759 2.782-7.43.527-2.779-1.515-10-2.828-10-.462 0-.84-.436-.84-.969 0-.532.642-.722 1.427-.421 1.042.4 1.28-.013.883-1.531-.639-2.445-2.838-2.752-3.696-.516-.33.86-1.101 1.254-1.714.875-.782-.483-.709-.944.243-1.548.952-.603.552-.864-1.343-.875-1.497-.008-3.194.765-3.808 1.735m49.821-1.067c.721.289 1.584.253 1.916-.079.332-.332-.258-.568-1.312-.525-1.165.048-1.402.285-.604.604M64.5 58c.34.55 1.068 1 1.618 1s.722-.45.382-1c-.34-.55-1.068-1-1.618-1s-.722.45-.382 1m143.735 3.501c-2.377 1.714-5.241 7.438-4.845 9.683.91 5.157 2.824 7.955 7.101 10.385 3.048 1.731 10.197-.41 13.172-3.945 2.165-2.573 2.429-3.595 1.824-7.066-.389-2.232-.732-4.605-.764-5.273-.074-1.596-6.058-4.395-10.615-4.965-2.357-.296-4.393.114-5.873 1.181m-25.826 1.433c-1.929.816-3.403 3.436-4.848 8.621-.734 2.636 2.376 6.053 6.291 6.913 3.825.84 9.93-1.705 10.995-4.583 2.498-6.753-5.567-13.853-12.438-10.951m17.403 2.552c-.224 1.917-.108 5.63.257 8.25.575 4.127.682 3.661.797-3.486.139-8.573-.351-10.788-1.054-4.764M81.204 67.955c1.379 2.209 2.351 1.934 1.451-.412-.326-.849-1.06-1.543-1.632-1.543-.658 0-.592.717.181 1.955M228.252 72.5c.011 2.2.216 2.982.455 1.738.239-1.244.23-3.044-.02-4s-.446.062-.435 2.262m-146.173.083c.048 1.165.285 1.402.604.605.289-.722.253-1.585-.079-1.917-.332-.332-.568.258-.525 1.312m28.991 2.167c-.046 1.489-.69 2.25-1.901 2.25-1.007 0-2.412 1.085-3.122 2.411-1.044 1.953-2.076 2.411-5.419 2.407-7.084-.009-8.628.158-8.624.932.003.412 4.728.845 10.5.961l10.496.211-.07-3.711c-.039-2.041-.457-4.611-.93-5.711-.82-1.908-.863-1.897-.93.25m28.734 1.165c-.902 1.054-1.452 2.179-1.222 2.5.23.322.114.356-.258.076-.77-.58-5.324 3.426-5.324 4.683 0 .454 2.025.826 4.5.826h4.5v-5c0-2.75-.125-5-.278-5-.153 0-1.016.862-1.918 1.915m3.863-.248c-.367.366-.667 2.391-.667 4.5 0 3.714.109 3.833 3.5 3.833 2.125 0 3.506-.491 3.515-1.25.011-.847.316-.775.946.221.512.809 1.206 1.196 1.542.859.337-.336-.876-1.652-2.695-2.923-3.797-2.652-4.882-3.978-4.183-5.109.595-.964-1.018-1.072-1.958-.131M85.171 80c-.148 3.792-.005 4 2.774 4 2.314 0 2.899-.421 2.78-2-.083-1.1-.677-2-1.321-2-.644 0-1.406-.9-1.694-2-.886-3.387-2.374-2.215-2.539 2m-5.094-1c.33 3.094-.117 3.925-1.827 3.393-1.498-.466-1.526-.398-.196.472 2.223 1.452 5.446.736 5.446-1.21 0-.91-.4-1.617-.888-1.57-.489.047-1.295-.515-1.792-1.25-.725-1.072-.872-1.04-.743.165M114 82.167c0 1.29.743 1.833 2.508 1.833 2.183 0 2.36-.239 1.364-1.833-.63-1.009-1.759-1.834-2.508-1.834-.75 0-1.364.825-1.364 1.834M8.762 83.707c1.244.239 3.044.23 4-.02s-.062-.446-2.262-.435c-2.2.011-2.982.216-1.738.455m202.988.999c1.238.238 3.262.238 4.5 0 1.238-.239.225-.434-2.25-.434s-3.488.195-2.25.434M76.682 86.509c.893.653 1.303 1.706.912 2.339-.392.634-.28 1.152.249 1.152.528 0 1.885 1.46 3.015 3.245 1.555 2.456 2.022 2.76 1.922 1.25-.073-1.097.193-3.687.591-5.755l.723-3.76-4.518.171c-3.753.142-4.243.372-2.894 1.358M85 92.2c0 5.321.293 6.907 1.122 6.078.617-.617 1.629-.928 2.25-.691.653.249 1.213-.791 1.329-2.472.169-2.429-.117-2.819-1.75-2.392-1.073.281-1.951.022-1.951-.575s.629-.844 1.399-.548c.769.295 1.7.048 2.069-.548.369-.597 1.096-.821 1.617-.499.521.322.689 1.004.372 1.516-.958 1.551.578 1.049 3.27-1.069 1.399-1.1 3.315-2 4.259-2 3.4 0 8.014 2.211 8.029 3.848.014 1.432.145 1.452.985.152.828-1.282.972-1.246.985.25.008.963-.505 1.75-1.14 1.75-.662 0-.396.839.623 1.965 1.104 1.219 1.597 2.916 1.3 4.47-.264 1.377-.097 2.268.37 1.98.467-.289.753.635.635 2.053-.125 1.512-.701 2.39-1.394 2.124-.65-.25-1.424.474-1.721 1.607-.357 1.364-1.066 1.859-2.098 1.462-.858-.329-1.56-.162-1.56.37 0 .533.338.986.75 1.007.412.021 2.438.282 4.5.581l3.75.544V85h-8.441c-4.643 0-8.719.45-9.059 1-.34.55-1.154.993-1.809.985-.716-.01-.592-.403.309-.985 1.074-.694.008-.974-3.75-.985L85 85v7.2m29.064 6.766l-.019 13.967 10.728.321 10.727.321-10.75.213L114 114V141.885l4.25.383 4.25.383-4.299.174-4.3.175.233 5.112c.312 6.828 3.946 10.689 5.234 5.559.657-2.618 4.369-4.671 8.447-4.671 3.69 0 9.61 4.197 11.144 7.9 1.083 2.616 1.017 3.267-.486 4.77-1.119 1.119-1.336 1.876-.607 2.119.624.208 1.134.776 1.134 1.263 0 .487-.675.626-1.5.31-.825-.317-1.5-.078-1.5.531s.519 1.107 1.153 1.107.115.9-1.153 2l-2.306 2H142v-27.167c0-25.05.392-31.478 1.387-22.751.214 1.88.44 3.756.501 4.168.062.412.61.75 1.219.75.609 0 .848-.675.531-1.5-.316-.825-.113-1.5.452-1.5.566 0 .86-.338.655-.75-.344-.69 3.996-5.487 4.523-5.001.128.118 1.345-.565 2.705-1.517 1.359-.953 2.012-1.732 1.45-1.732-.563 0-1.563.54-2.223 1.2-.933.933-1.2.933-1.2 0 0-1.412-8.651-1.693-9.167-.299-.183.496-.913.271-1.622-.5-.745-.809-.851-1.401-.25-1.401.669 0 1.039-4.979 1.039-14V85h-27.916l-.02 13.966m29.006-9.216c.08 5.364 1.733 10.835 1.86 6.153.038-1.428.97-3.635 2.07-4.903 1.1-1.268 2-2.714 2-3.212 0-.498.45-.628 1-.288s1.007.029 1.015-.691c.013-1.043.19-1.033.875.048.529.834 1.098.971 1.479.355.833-1.347-1.69-2.212-6.451-2.212H143l.07 4.75m36.68 2.008c-1.512.938-2.75 2.501-2.75 3.474 0 .972-.562 1.775-1.25 1.783-.847.011-.767.357.25 1.076 1.022.723 1.134 1.212.351 1.535-1.552.64 1.055 5.844 3.941 7.866 4.675 3.274 11.145.695 13.694-5.458 1.009-2.437 1.009-3.632-.002-6.074-2.417-5.833-8.64-7.67-14.234-4.202m28.705.697c-3.037 3.037-3.437 10.376-.736 13.529 3.921 4.58 13.233 2.903 15.39-2.771 3.551-9.34-7.765-17.648-14.654-10.758m-87.266.584C119.985 94.16 119 95.687 119 96.432c0 .745-.775 1.651-1.722 2.015-1.06.407-1.32.928-.677 1.357.945.63 2.339 3.439 2.348 4.732.009 1.327 5.186 5.114 6.769 4.953 3.49-.357 7.361-2.881 9.347-6.095 1.855-3 1.9-3.542.561-6.748-.801-1.917-2.365-3.971-3.476-4.566-3.266-1.748-8.552-1.286-10.961.959M85 104.21c0 5.329 3.297 8.73 7.5 7.736l3-.709-2.75-.119c-2.444-.105-2.75-.501-2.75-3.559 0-1.893-.408-3.693-.907-4.001-.498-.309-.671.34-.383 1.441.323 1.234.031 2.001-.76 2.001-.706 0-.987-.296-.625-.658.362-.362.156-1.262-.456-2-.815-.981-.816-1.7-.007-2.675.837-1.01.746-1.334-.378-1.334-1.057 0-1.484 1.116-1.484 3.877m58.73-3.46c-.214.412-.472 3.338-.575 6.5l-.186 5.75h3.457c1.901 0 3.777-.52 4.169-1.155.443-.715.275-.883-.44-.44-.65.401-1.155.137-1.155-.605 0-.726-.944-1.908-2.097-2.629-1.154-.72-1.833-1.574-1.509-1.898.324-.324.092-1.187-.515-1.918-.606-.731-.842-2.01-.522-2.842.588-1.533.087-2.142-.627-.763m-61.651 1.833c.048 1.165.285 1.402.604.605.289-.722.253-1.585-.079-1.917-.332-.332-.568.258-.525 1.312M81.5 106c.34.55.156 1-.41 1-.565 0-.74.749-.389 1.664.398 1.037.241 1.418-.418 1.011-.581-.359-1.612.017-2.292.836-1.004 1.209-.946 1.489.305 1.489.847 0 2.178.245 2.957.543 1.063.409 1.455-.462 1.574-3.5.089-2.262-.305-4.043-.893-4.043-.579 0-.774.45-.434 1m3.5 5.559c0 .857.457 1.276 1.016.931.559-.346.758-1.047.441-1.559-.857-1.387-1.457-1.129-1.457.628m94.28 2.177c2.629.207 6.679.204 9-.005 2.321-.21.17-.379-4.78-.376-4.95.003-6.849.175-4.22.381M79 115.441c0 .793.445 1.716.989 2.052.566.35.734-.051.393-.941-.328-.854-.135-1.552.428-1.552s1.25.563 1.528 1.25c.301.747.536.545.583-.5.05-1.11-.653-1.75-1.921-1.75-1.1 0-2 .648-2 1.441m6 2.25c0 3.517.075 3.6 1.582 1.75 1.412-1.734 1.52-1.749 1.011-.139-.358 1.132-.172 1.556.499 1.141.605-.374.79-1.777.426-3.227-.512-2.04-.375-2.345.669-1.491.956.782 1.664.693 2.602-.325 1.089-1.182.66-1.4-2.75-1.4-3.989 0-4.039.045-4.039 3.691m15.75-2.928c1.532.256 2.25 1.073 2.25 2.56 0 2.276 4.937 7.677 7.017 7.677.658 0 .943.661.634 1.468-.31.807-.085 1.764.499 2.125.718.443.652.911-.204 1.44-.696.431-1.332 1.67-1.412 2.754-.08 1.084-.828 3.038-1.662 4.342-3.175 4.964-3.195 4.871 1.069 4.871H113V114.007l-7.25.19c-3.987.104-6.237.359-5 .566M10 115.859c0 .692-.45.981-1 .641-.55-.34-1-.066-1 .608 0 .674-.275.95-.611.614-.336-.336-1.716.701-3.065 2.305-2.949 3.504-3.944 10.214-1.781 12.009.801.665 1.457 1.723 1.457 2.351 0 1.068 6.881 4.613 8.955 4.613 1.284 0 5.342-3.912 7.462-7.195 2.817-4.361 1.685-8.295-4.119-14.319-.662-.686-.887-1.587-.5-2.002.386-.415-.242-.265-1.395.334-1.534.796-2.406.779-3.25-.065-.871-.871-1.153-.845-1.153.106m202 2.838c-3.417 1.271-5.613 4.371-5.842 8.246-.247 4.187 1.474 8.057 3.583 8.057.692 0 1.259.45 1.259 1s1.035 1 2.3 1 2.84.54 3.5 1.2c.854.854 1.2.873 1.2.067 0-.623.857-1.404 1.904-1.736 1.046-.333 2.64-2.158 3.541-4.057 2.027-4.271.666-10.809-2.617-12.566-2.58-1.381-6.812-1.962-8.828-1.211m-88.25 1.091c-.963.197-1.75.762-1.75 1.254s-.787.613-1.75.267c-.963-.345-1.416-.26-1.009.19.408.449.359 1.308-.109 1.909-1.556 1.998-2.186 7.591-.857 7.607.908.012.925.207.066.753-1.853 1.179 1.771 4.867 5.722 5.822 7.164 1.733 9.804.551 13.069-5.849 1.557-3.052 1.731-4.201.805-5.317-.65-.783-.847-1.424-.437-1.424 1.624 0-2.035-3.197-5.148-4.497-3.194-1.335-4.888-1.476-8.602-.715m48.866 12.024c-.986 1.596-.599 24.296.404 23.676.539-.333.98-1.254.98-2.047 0-.793.45-1.441 1-1.441s1-.575 1-1.278c0-1.472 3.506-4.722 5.095-4.722.589 0 .886-.562.66-1.25-.226-.687-2.176-1.524-4.333-1.858-2.975-.461-3.258-.642-1.172-.75 3.4-.176 3.45-1.095.25-4.547-2.303-2.486-2.929-3.881-2.618-5.845.157-.996-.636-.958-1.266.062m-46.866 10.85c.688.278 1.813.278 2.5 0 .688-.277.125-.504-1.25-.504s-1.937.227-1.25.504m5 0c.688.278 1.813.278 2.5 0 .688-.277.125-.504-1.25-.504s-1.937.227-1.25.504m35 0c.688.278 1.813.278 2.5 0 .688-.277.125-.504-1.25-.504s-1.937.227-1.25.504m44.5.073c2.613.206 6.887.206 9.5 0 2.613-.206.475-.375-4.75-.375s-7.363.169-4.75.375M106 144c1.265.818 1.274.972.059.985-1.033.011-.892.43.5 1.483 1.067.808 1.586 1.483 1.152 1.5-.435.018-.21.66.5 1.427.709.767 1.594 1.211 1.967.986 1.042-.63 1.738 2.729 1.371 6.619-.181 1.925-.379 4.92-.439 6.656-.094 2.708-.43 3.097-2.36 2.739-1.237-.229-1.687-.15-1 .177.688.327 1.25 1.18 1.25 1.895 0 .715.884 1.531 1.965 1.813 1.883.493 1.964-.063 1.971-13.383l.006-13.897-4.221.015c-3.094.012-3.82.275-2.721.985m81.667-.333c-.367.366-.66 1.154-.652 1.75.009.595.41.461.891-.299.688-1.086 1.02-.926 1.551.748.372 1.171 1.798 2.411 3.169 2.755 1.371.344 2.34 1.133 2.152 1.752-.187.62.911 2.421 2.441 4.003l2.781 2.875V143h-5.833c-3.209 0-6.134.3-6.5.667M9 145.31c0 .855-.908 1.843-2.017 2.195-3.382 1.074-5.058 6.588-3.665 12.059 1.056 4.148 1.609 4.789 5.182 6.011 4.876 1.667 8.291 1.168 10.148-1.482.768-1.097 1.975-2.579 2.681-3.294 1.388-1.403 1.489-5.095.226-8.299-2.533-6.425-3.05-7.247-4.265-6.781-.723.278-2.058-.108-2.965-.857-1.33-1.098-1.735-1.111-2.085-.07-.334.992-.76 1.022-1.837.127-1.102-.914-1.403-.83-1.403.391m142.913 4.972c-3.413 2.62-3.959 5.197-2.3 10.861.863 2.946 2.004 5.807 2.537 6.357.63.65.722.353.264-.849-.636-1.67-.496-1.719 1.441-.509 1.18.736 2.145 1.681 2.145 2.099 0 .417.787.723 1.75.68 1.045-.047 1.247-.282.5-.583-2.297-.927-1.284-2.019 1.708-1.84 1.627.096 2.745-.17 2.484-.592-.261-.422-.014-1.052.549-1.4.563-.348 1.707-1.954 2.542-3.569 1.358-2.627 1.358-3.247-.002-5.876-2.838-5.488-9.602-7.862-13.618-4.779m-37.275 7.218c.317.825.753 1.5.969 1.5.216 0 .393-.675.393-1.5s-.436-1.5-.969-1.5c-.532 0-.709.675-.393 1.5m86.441 1.083c.048 1.165.285 1.402.604.605.289-.722.253-1.585-.079-1.917-.332-.332-.568.258-.525 1.312M146 161c0 .55.477 1 1.059 1s.781-.45.441-1-.816-1-1.059-1-.441.45-.441 1m53 .5c0 .825-.675 1.5-1.5 1.5s-1.447.338-1.382.75c.428 2.708-.26 5.281-1.248 4.67-.685-.424-.948-.152-.667.691.254.764 1.662 1.434 3.129 1.49 2.163.082 2.668-.344 2.668-2.25 0-1.293-.45-2.351-1-2.351s-1-.477-1-1.059.45-.781 1-.441c.567.351 1-.49 1-1.941 0-1.407-.225-2.559-.5-2.559s-.5.675-.5 1.5m-84.037-.5c-.091.275-.349 2.637-.575 5.25-.389 4.487-.276 4.75 2.041 4.75 3.201 0 3.88-1.249 1.957-3.603-1.417-1.735-1.5-1.743-.979-.095.354 1.12.17 1.555-.487 1.149-.581-.359-.815-1.282-.52-2.051.295-.769.129-2.411-.368-3.649-.498-1.238-.979-2.026-1.069-1.751M201 166.876c0 3.281.297 3.712 2.688 3.91 2.472.205 4.259-1.086 4.297-3.103.008-.45-.951-.511-2.131-.137-1.8.572-2.061.354-1.617-1.346.372-1.42-.034-2.175-1.353-2.52-1.594-.417-1.884.075-1.884 3.196m-28.565-.474c-.824 3.283.125 4.612 3.115 4.365 2.623-.218 3.457-1.767.95-1.767-.825 0-1.5-.873-1.5-1.941 0-2.978-1.863-3.455-2.565-.657M106.5 169c-.34.55-.141 1 .441 1s1.059-.45 1.059-1-.198-1-.441-1-.719.45-1.059 1m132.313 2.683c.721.289 1.584.253 1.916-.079.332-.332-.258-.568-1.312-.525-1.165.048-1.402.285-.604.604m-128.935 1.151c.758.519 1.101 1.392.761 1.941-.339.549.091 1.586.957 2.305 1.379 1.144 1.533.943 1.239-1.628-.23-2.019-.959-3.032-2.335-3.247-1.519-.237-1.668-.086-.622.629M114 174c0 2.235 1.181 2.509 4.094.95 2.47-1.322 1.558-2.95-1.653-2.95-1.774 0-2.441.546-2.441 2m19-.779c0 .493-.403.648-.895.344-.493-.305-1.164.147-1.493 1.004-.358.932-1.103 1.254-1.855.802-.867-.521-.832-.23.115.937.755.931 1.993 1.692 2.75 1.692.758 0 1.378.378 1.378.839 0 .462 1.125 1.353 2.5 1.979 2.46 1.121 3.222.517 1.75-1.389-.412-.534.199.091 1.359 1.389 1.852 2.073 2.187 2.157 2.75.689.352-.919.641-3.437.641-5.597v-3.926l-4.5.17c-2.475.094-4.5.574-4.5 1.067m10.672-.471c-.246.412-.441 1.931-.434 3.374.009 2.064.409 2.52 1.876 2.136 1.025-.268 1.673-.795 1.441-1.171-.233-.377-.021-1.334.469-2.128.662-1.071 1.184-1.153 2.019-.318 1.443 1.443 4.957.551 4.957-1.26 0-.991-1.401-1.383-4.941-1.383-2.718 0-5.142.338-5.387.75m11.328.752c0 2.073 1.712 2.722 3.979 1.509 1.363-.729 2.021-.745 2.021-.046 0 .569.661 1.035 1.469 1.035.875 0 1.242.589.909 1.458-.376.98.321 1.679 2.126 2.132 1.73.434 2.258.939 1.484 1.417-.867.536-.891.935-.087 1.432 1.939 1.198 4.099-2.134 4.099-6.324v-4.027l-8 .017c-6.126.014-8 .341-8 1.397m17.25 1.174c0 2.881 1.532 4.056 2.386 1.83.342-.892 1.202-1.398 1.91-1.127 1.055.405 2.454-1.265 2.454-2.93 0-.214-1.519-.331-3.375-.261-2.844.107-3.375.498-3.375 2.488m19.75-1.569c0 .609.652.857 1.449.551.937-.359 1.265-.076.928.803-.29.755.287 1.615 1.301 1.937 3.169 1.006 3.81.705 4.009-1.879.176-2.299-.152-2.519-3.747-2.519-2.214 0-3.94.485-3.94 1.107m9.017 3.712l.017 4.681 2.081-3.25c1.541-2.406 2.814-3.25 4.9-3.25 1.55 0 2.989-.511 3.197-1.136.268-.803.953-.838 2.333-.118 1.075.56 3.285 1.413 4.911 1.895 1.917.568 3.64 2.177 4.906 4.58 1.073 2.037 2.33 3.469 2.794 3.182.464-.286.92.518 1.012 1.788.093 1.27.43-.391.75-3.691.888-9.154.694-9.5-5.335-9.5-2.85 0-5.789.563-6.53 1.25-.832.772-1.1.81-.701.098.461-.823-1.495-1.161-6.854-1.182l-7.498-.029.017 4.682m-74.874-2.929c-.834.529-.971 1.098-.355 1.479.552.341 1.26-.053 1.576-.875.662-1.727.6-1.757-1.221-.604M8.27 175.703c-3.601.696-6.614 5.791-5.927 10.025.982 6.049 9.027 12.302 12.002 9.327.58-.58 1.816-1.055 2.746-1.055 2.3 0 5.201-7.396 4.375-11.153-.714-3.254-6.192-7.916-9.06-7.711-1.048.075-2.909.33-4.136.567M118 177.5c0 .825.177 1.5.393 1.5.216 0 .652-.675.969-1.5.316-.825.139-1.5-.393-1.5-.533 0-.969.675-.969 1.5m78.5 1.5c.34.55 1.068 1 1.618 1s.722-.45.382-1c-.34-.55-1.068-1-1.618-1s-.722.45-.382 1m-31.051 12.468c-.797 1.907-1.435 3.82-1.419 4.25.044 1.124 2.35-2.948 2.615-4.618.122-.77.814-1.775 1.539-2.235 1.068-.677 1.071-.837.015-.85-.716-.008-1.953 1.546-2.75 3.453m61.746.032c.02 1.65.244 2.204.498 1.231.254-.973.237-2.323-.037-3-.274-.677-.481.119-.461 1.769m-59.59 5.75c.229 1.238.15 1.688-.177 1-.794-1.669-3.083-1.592-3.742.125-.357.931.247 1.375 1.875 1.375 2.691 0 4.951-2.112 3.966-3.706-1.149-1.86-2.351-1.106-1.922 1.206M225 196.059c0 .582.45.781 1 .441 1.316-.813 1.29.81-.033 2.133-.711.711-.556 1.034.5 1.034.939 0 1.533-.904 1.533-2.334 0-1.407-.595-2.333-1.5-2.333-.825 0-1.5.477-1.5 1.059m-24 2.441c0 .825.436 1.5.969 1.5.532 0 .709-.675.393-1.5-.317-.825-.753-1.5-.969-1.5-.216 0-.393.675-.393 1.5m-62 .559c0 .582.45.781 1 .441s1-.816 1-1.059-.45-.441-1-.441-1 .477-1 1.059m56.5-.059c-.34.55.309 1 1.441 1 1.132 0 2.059-.45 2.059-1s-.648-1-1.441-1-1.719.45-2.059 1m-21.75.662c.688.278 1.813.278 2.5 0 .688-.277.125-.504-1.25-.504s-1.937.227-1.25.504M192.5 202c.34.55.816 1 1.059 1s.441-.45.441-1-.477-1-1.059-1-.781.45-.441 1m31.5.042c0 .573.9 2.008 2 3.188l2 2.147v-3.188c0-2.522-.418-3.189-2-3.189-1.1 0-2 .469-2 1.042m-54.5.958c.34.55.816 1 1.059 1s.441-.45.441-1-.477-1-1.059-1-.781.45-.441 1m3.138.5c.317.825.978 1.5 1.469 1.5.491 0 .893-.675.893-1.5s-.661-1.5-1.469-1.5c-.894 0-1.243.586-.893 1.5m6.378.057c-2.6 1.424-4.51 6.02-2.912 7.007.511.316.663 1.004.339 1.529-.325.525 1.417-.969 3.872-3.319 3.251-3.115 4.188-4.613 3.451-5.524-1.2-1.484-1.518-1.464-4.75.307M187 204c-.854 1.596-.76 2 .465 2 .868 0 1.535-.869 1.535-2 0-1.1-.209-2-.465-2-.255 0-.946.9-1.535 2m9.356.501c-.08 1.374.258 2.499.75 2.499.805 0 1.053-.809.809-2.638-.047-.351.515-1.019 1.25-1.485.987-.626.814-.85-.665-.861-1.432-.01-2.041.695-2.144 2.485M169.5 206c.34.55.816 1 1.059 1s.441-.45.441-1-.477-1-1.059-1-.781.45-.441 1m7.959.067c-.363.586-.445 1.281-.183 1.543s.743-.218 1.069-1.067c.676-1.762.1-2.072-.886-.476M6.126 208.044c-1.599 1.332-2.525 3.361-2.837 6.217-.408 3.736-.083 4.624 2.742 7.489 5.19 5.261 11.814 4.05 13.782-2.52 1.662-5.549 1.493-7.571-.886-10.595-2.627-3.34-9.14-3.641-12.801-.591m167.333.023c-.363.586-.445 1.281-.183 1.543s.743-.218 1.069-1.067c.676-1.762.1-2.072-.886-.476m21.386 5.452c.229 2.883-.186 5.353-1.147 6.82-1.369 2.088-1.342 2.402.288 3.42 1.529.955 1.72.833 1.288-.819-.279-1.067-.056-1.94.496-1.94 1.516 0 2.075-5.95.862-9.165-1.548-4.101-2.198-3.489-1.787 1.684m-5.178 11.148c-.367.366-.667 1.131-.667 1.7 0 .626.466.567 1.183-.15.651-.651.951-1.416.667-1.7-.284-.285-.817-.217-1.183.15m3.736 2.283c-.497.471-1.803 1.072-2.903 1.337-1.512.364-1.328.509.75.597 1.537.065 2.75-.413 2.75-1.084 0-.933.267-.933 1.2 0 1.532 1.532 3.8 1.552 3.8.033 0-.641-.284-.882-.631-.535-.348.347-1.404.219-2.347-.286-.953-.51-2.117-.538-2.619-.062M173.5 228c-.34.55-.141 1 .441 1s1.059-.45 1.059-1-.198-1-.441-1-.719.45-1.059 1m12.5 0c0 .55.477 1 1.059 1s.781-.45.441-1-.816-1-1.059-1-.441.45-.441 1m-9.187.683c.721.289 1.584.253 1.916-.079.332-.332-.258-.568-1.312-.525-1.165.048-1.402.285-.604.604m68 1c.721.289 1.584.253 1.916-.079.332-.332-.258-.568-1.312-.525-1.165.048-1.402.285-.604.604M167 233c0 .55.477 1 1.059 1s.781-.45.441-1-.816-1-1.059-1-.441.45-.441 1m-159 .692c-4.337 1.683-6.192 8.016-3.94 13.453 1.423 3.435 7.048 6.21 10.883 5.367 6.47-1.421 8.979-9.427 4.86-15.512-1.978-2.923-3.022-3.532-6.336-3.695-2.182-.107-4.642.067-5.467.387m26.589 3.385c-4.059 4.824-3.072 11.357 2.365 15.641C41.565 256.352 51 250.794 51 244.443 51 237.521 47.474 234 40.542 234c-2.529 0-4.007.764-5.953 3.077m29.778-1.358C61.295 238.284 60 241.302 60 245.898c0 3.534.46 4.342 3.732 6.566 7.333 4.983 14.739 1.863 15.858-6.68.485-3.704.178-4.722-2.265-7.522-3.562-4.082-9.676-5.282-12.958-2.543m78.712.864c.048 1.165.285 1.402.604.605.289-.722.253-1.585-.079-1.917-.332-.332-.568.258-.525 1.312M199 253.5c0 1.375.445 2.5.989 2.5s.895-1.125.782-2.5c-.114-1.375-.559-2.5-.989-2.5-.43 0-.782 1.125-.782 2.5m6.418.985c-1.766 1.336-1.561 1.448 2.582 1.404 2.475-.026 3.825-.297 3-.602-.825-.306-1.987-.937-2.582-1.404-.63-.495-1.883-.243-3 .602M134 255c0 .55.477 1 1.059 1s.781-.45.441-1-.816-1-1.059-1-.441.45-.441 1m10-.607c0 .216.675.652 1.5.969.825.316 1.5.139 1.5-.393 0-.533-.675-.969-1.5-.969s-1.5.177-1.5.393m70.213.787c-1.037.411-.034.707 2.537.75 2.338.038 4.25-.268 4.25-.68 0-.936-4.489-.982-6.787-.07m-114.463.482c.688.278 1.813.278 2.5 0 .688-.277.125-.504-1.25-.504s-1.937.227-1.25.504" fill="#1976D2" fill-rule="evenodd"/><path fill-opacity=".207" d="M1.25.689c.962.252 2.538.252 3.5 0C5.713.438 4.925.232 3 .232S.288.438 1.25.689m206.924 34.625c-3.197 3.404-2.977 9.61.462 13.05 2.646 2.645 3.733 3.011 8.364 2.811 3.205-.138 8-5.408 8-8.791 0-1.605-1.288-3.872-3.4-5.984-4.285-4.285-9.986-4.746-13.426-1.086M33.977 36.75c-5.84 7.409 2.883 18.606 11.078 14.22 2.375-1.271 4.956-6.088 4.913-9.17-.099-7.143-11.502-10.744-15.991-5.05m60.936-1.468c-4.216 3.237-5.031 9.027-1.84 13.083 2.353 2.992 5.591 3.377 9.855 1.172 3.237-1.674 4.072-3.324 4.072-8.046 0-5.733-7.613-9.644-12.087-6.209m59.049-.472c-4.873 1.503-6.717 8.292-3.133 11.535 2.925 2.647 8.642 2.142 11.098-.98 2.575-3.273 2.59-4.438.096-7.609-1.998-2.54-5.376-3.775-8.061-2.946m-30.788 2.504c-6.669 7.099 3.486 17.117 10.371 10.231 3.341-3.34 3.265-7.763-.18-10.472-3.474-2.733-7.486-2.638-10.191.241m58.899.321c-2.306 2.931-2.748 6.357-.823 6.38.92.012.892.243-.107.875-.946.6-1.021 1.067-.25 1.544.609.376 1.627.363 2.262-.029.715-.443.883-.275.44.44-.392.635-.236 1.155.346 1.155S185 47.55 185 47s.477-1 1.059-1 .738.52.346 1.155c-.924 1.494 1.341.225 4.233-2.373 2.333-2.095 2.175-5.016-.434-8.032-2.197-2.539-5.742-2.153-8.131.885M33.382 64.418c-3.305 3.305-3.587 4.016-3.085 7.763.874 6.514 4.498 9.258 11.8 8.934 5.769-.256 9.544-7.738 7.002-13.876-1.386-3.347-3.618-4.871-8.466-5.78-3.243-.608-3.988-.304-7.251 2.959m119.975-2.448c-4.589 1.898-6.776 8.51-4.327 13.085 1.556 2.908 6.363 5.016 9.848 4.319 4.281-.856 6.577-3.807 6.577-8.454 0-6.366-6.578-11.233-12.098-8.95M66.25 64.989c-4.313 2.629-4.603 7.801-.615 10.938 3.203 2.52 4.693 2.583 8.461.357 4.584-2.708 3.946-9.177-1.168-11.821-3.458-1.788-2.796-1.841-6.678.526m27.775-.014c-2.927 2.927-3.532 6.603-1.577 9.586 2.115 3.227 3.705 3.82 8.057 3.004 6.964-1.306 7.947-11.166 1.342-13.468-4.368-1.523-5.554-1.39-7.822.878m29.204-1.306c-.699.282-1.894 1.717-2.656 3.189-4.342 8.398 6.756 16.201 13.781 9.69 3.516-3.259 3.421-6.927-.277-10.625-2.824-2.824-7.181-3.729-10.848-2.254m85.328 1.554C204.573 70.91 208.521 79 215.28 79c7.027 0 10.326-8.485 5.265-13.545-3.32-3.321-9.738-3.445-11.988-.232M63.306 92.413c-2.298 1.977-2.806 3.225-2.806 6.895 0 7.629 6.257 11.721 12.387 8.1 5.743-3.393 6.734-9.941 2.19-14.485-3.664-3.664-7.891-3.847-11.771-.51m90.051-1.443c-4.589 1.898-6.776 8.51-4.327 13.085.566 1.059 2.326 2.595 3.91 3.414 7.969 4.121 15.885-7.076 9.81-13.876-2.572-2.878-6.275-3.913-9.393-2.623M34.544 93.25c-4.584 4.018-3.952 12.332 1.113 14.64 4.317 1.966 8.268 1.339 11.42-1.813 3.321-3.322 3.658-6.024 1.258-10.087-3.094-5.237-9.491-6.508-13.791-2.74m88.645.789c-2.431 2.265-2.773 4.984-1.039 8.277 1.511 2.872 2.791 3.65 6.027 3.669 2.986.017 6.823-4.013 6.823-7.165 0-2.662-4.431-6.82-7.266-6.82-1.296 0-3.342.918-4.545 2.039m58.63-.789c-3.395 2.714-2.846 8.456 1.094 11.459 3.421 2.608 9.087-1.325 9.087-6.307 0-5.196-6.201-8.334-10.181-5.152m29.422 1c-.552.688-.804 2.6-.559 4.25.244 1.65.491 3.543.548 4.206.057.663.427 1.006.823.761.396-.245 1.25.194 1.898.974 1.123 1.353 3.912 1.379 6.053.057 1.62-1.001 1.137-7.311-.726-9.487-1.924-2.246-6.496-2.679-8.037-.761M65.893 120.473C62.956 122.096 60 126.13 60 128.514c0 2.854 2.797 7.072 5.508 8.308 3.828 1.744 9.811-.032 11.329-3.364 1.799-3.948 1.384-8.099-1.087-10.865-2.843-3.181-6.509-3.97-9.857-2.12m114.163.471c-6.314 6.314-.887 18.736 7.289 16.684 7.543-1.893 10.082-11.357 4.454-16.6-2.878-2.682-9.101-2.726-11.743-.084M35.289 122.25c-4.353 4.756-4.053 9.787.732 12.261 3.903 2.018 6.221 1.873 9.344-.584 1.868-1.469 2.631-2.997 2.62-5.25-.018-3.683-.578-4.672-3.958-6.985-3.374-2.309-6.284-2.123-8.738.558m116.75-.061c-1.371 1.471-2.039 3.544-2.039 6.325 0 5.282 3.081 8.486 8.159 8.486 4.81 0 7.123-2.742 7.245-8.587.077-3.684-.369-4.966-2.265-6.501-3.227-2.614-8.53-2.482-11.1.277m-57.85.85C90.041 126.903 92.328 137 97.351 137c3.218 0 7.461-2.292 8.511-4.597 1.724-3.784 1.408-5.287-1.785-8.48-3.426-3.426-6.833-3.731-9.888-.884m30.964.726c-2.27 1.937-2.898 4.667-1.812 7.877 1.663 4.913 9.674 2.907 9.644-2.415-.019-3.279-.789-4.561-3.642-6.063-1.738-.914-2.552-.798-4.19.601M66.02 149.284c-5.242 2.652-6.603 10.223-2.565 14.261 5.476 5.477 15.545.572 15.545-7.572 0-2.848-5.268-7.977-8.173-7.958-1.28.008-3.443.579-4.807 1.269m27.219.261c-4.548 3.186-4.541 12.174.012 15.679 3.435 2.644 7.461 2.218 10.826-1.147 3.854-3.854 4.149-10.577.609-13.903-2.754-2.587-8.222-2.888-11.447-.629m87.35 2.532c-5.669 6.737-.464 16.518 7.343 13.797 6.02-2.099 7.949-10.226 3.422-14.422-3.689-3.419-7.551-3.195-10.765.625m-144.977-.201c-.934 1.032-1.957 3.474-2.274 5.427-1.061 6.54 6.041 10.922 11.503 7.096 6.552-4.589 3.559-14.285-4.436-14.367-1.79-.019-3.811.759-4.793 1.844m174.023.197c-3.445 2.709-3.521 7.132-.18 10.472 4.066 4.067 8.625 2.773 10.526-2.988 1.287-3.9.286-6.809-2.938-8.534-2.806-1.502-4.463-1.267-7.408 1.05m-57.064.498c-2.478 2.479-1.967 6.972 1.064 9.356 3.148 2.477 5.161 2.605 8.142.516 2.829-1.981 2.941-6.725.223-9.443-2.392-2.392-7.245-2.613-9.429-.429m-89.152 26.708c-3.33 3.957-3.314 9.917.036 13.266 5.497 5.498 15.545 1.18 15.545-6.679 0-4.004-3.239-8.7-6.205-8.995-6.036-.601-7.067-.336-9.376 2.408m29.036.176c-3.749 3.748-3.463 10.383.622 14.468 3.487 3.487 7.144 3.965 10.95 1.431 3.871-2.578 4.973-4.447 4.973-8.439 0-8.5-10.687-13.319-16.545-7.46m88.468.468c-3.995 3.995-4.128 9.984-.288 13.004 2.93 2.305 7.033 2.648 9.452.791 4.694-3.604 4.817-11.076.241-14.675-3.55-2.792-5.958-2.566-9.405.88m28.599.327c-3.559 3.092-4.218 8.291-1.585 12.5 1.745 2.789 2.603 3.25 6.048 3.25 4.476 0 7.555-2.319 8.598-6.475 2.173-8.656-6.601-14.888-13.061-9.275m-85.272.739c-2.763 1.685-3.25 2.56-3.25 5.841 0 4.694 2.374 7.17 6.874 7.17 3.498 0 8.126-3.713 8.126-6.52 0-2.708-1.912-5.383-4.98-6.97-3.564-1.842-2.884-1.891-6.77.479m27.178.091c-2.789 3.081-2.542 9.6.456 12.027 1.285 1.041 3.181 1.893 4.211 1.893 2.212 0 7.733-4.847 7.974-7 .476-4.257-.244-6.039-3.019-7.474-4.064-2.102-7.392-1.91-9.622.554M35.954 208.892c-4.726 4.726-3.649 11.072 2.305 13.575 5.176 2.176 10.226-.842 10.82-6.467.591-5.604-1.284-7.996-7.375-9.412-2.253-.523-3.37-.076-5.75 2.304m173.568-.642c-6.172 5.363-3.025 15.15 4.871 15.15 4.496 0 7.457-2.701 8.238-7.515.459-2.829.055-4.105-2.121-6.69-3.259-3.873-7.225-4.214-10.988-.945M68.5 207.907c-4.532 1.344-5.9 2.849-5.9 6.488 0 5.102 3.194 9.027 7.654 9.41 4.337.371 6.762-2.438 6.714-7.778-.049-5.409-4.196-9.387-8.468-8.12m25.298 2.141c-2.695 2.696-2.984 3.531-2.49 7.215.664 4.946 2.74 6.737 7.812 6.737 6.318 0 9.929-5.553 7.458-11.467-2.588-6.194-8.016-7.249-12.78-2.485m27.508-.635c-2.298 1.977-2.806 3.225-2.806 6.895 0 5.306 2.292 8.375 6.898 9.239 4.727.887 8.474-.997 10.2-5.126 4.005-9.587-6.52-17.693-14.292-11.008m61-.769c-2.017.82-3.484 6.758-2.384 9.651 2.811 7.394 13.078 4.632 13.078-3.518 0-4.964-5.63-8.194-10.694-6.133" fill="#1976D2" fill-rule="evenodd"/><path fill-opacity=".691" d="M210 37c-3.556 3.556-2.479 9.184 2.224 11.616 7.643 3.952 14.85-6.266 8.141-11.543-3.335-2.624-7.783-2.655-10.365-.073M35.557 38.223C30.605 45.292 39.955 54.045 46 48c2.554-2.554 2.645-8.106.171-10.345-2.736-2.476-8.706-2.157-10.614.568m88.105.849c-2.022 2.887-.71 7.185 2.543 8.33 3.249 1.144 5.242.372 7.352-2.848 1.552-2.37 1.555-2.734.035-5.054-2.136-3.26-7.776-3.503-9.93-.428M38.27 63.703c-3.53.682-6.537 5.214-5.824 8.778.907 4.533 3.779 6.871 8.246 6.713 4.823-.171 7.308-3 7.308-8.319 0-3.332-.477-4.195-3.25-5.886-1.788-1.09-3.475-1.922-3.75-1.849-.275.073-1.504.326-2.73.563m114.383 1.355c-2.238 1.761-2.703 2.84-2.457 5.707.8 9.32 13.804 9.149 13.804-.181 0-6.051-6.596-9.263-11.347-5.526m-29.165 1.363c-3.053 3.053-2.712 5.819 1.149 9.329 3.061 2.783 4.377 2.813 7.728.177 4.779-3.759 2.887-9.835-3.565-11.445-2.118-.529-3.262-.111-5.312 1.939M64.174 94.314c-2.884 3.071-2.771 7.179.281 10.231 3.236 3.237 6.054 3.099 9.622-.468 3.456-3.456 3.672-5.855.85-9.442-2.709-3.444-7.679-3.592-10.753-.321m88.049-.757c-3.124 2.187-3.074 8.295.091 11.269 2.799 2.628 5.742 2.774 8.572.424 7.344-6.097-.854-17.163-8.663-11.693M35.591 94.899c-2.286 2.527-2.331 7.626-.088 10.104 4.126 4.56 13.44.074 12.05-5.803-1.337-5.657-8.428-8.205-11.962-4.301m28.864 28.556c-1.35 1.35-2.455 3.62-2.455 5.045 0 3.334 4.166 7.5 7.5 7.5 3.334 0 7.5-4.166 7.5-7.5 0-1.425-1.105-3.695-2.455-5.045S70.925 121 69.5 121c-1.425 0-3.695 1.105-5.045 2.455m116.102-.232c-2.3 3.282-1.934 7.491.898 10.322 2.853 2.854 5.191 3.092 8.386.854 3.152-2.208 4.35-5.768 3.072-9.129-1.33-3.496-2.566-4.236-7.106-4.255-2.694-.011-4.115.586-5.25 2.208m-27.312.027c-1.877 2.346-2.357 5.671-1.151 7.962 1.57 2.98 2.821 3.754 6.099 3.773 5.063.028 7.828-7.846 3.978-11.33-2.153-1.949-7.497-2.191-8.926-.405m-87.79 29.205C64.105 153.805 63 155.85 63 157c0 2.698 4.302 7 7 7 2.89 0 7-4.377 7-7.455 0-3.266-3.279-6.545-6.545-6.545-1.4 0-3.65 1.105-5 2.455m28.29-.705c-4.382 4.901-.997 13.25 5.371 13.25 3.173 0 6.884-4.043 6.884-7.5 0-1.227-.933-3.416-2.073-4.865-2.477-3.149-7.748-3.607-10.182-.885m87.954 1.03c-2.235 2.47-2.167 7.487.13 9.565 5.627 5.092 13.936-2.148 9.428-8.215-2.465-3.317-7.176-3.982-9.558-1.35m-87.074 27.505c-.967.707-1.994 3.069-2.284 5.25-.444 3.35-.125 4.34 2.058 6.382 5.336 4.989 12.601 1.844 12.601-5.455 0-5.784-7.674-9.614-12.375-6.177m86.863.728C177.581 185.331 180.467 193 186 193c1.48 0 3.51-.906 4.512-2.013C194.419 186.669 191.533 179 186 179c-1.48 0-3.51.906-4.512 2.013m28.069 1.21c-1.851 2.641-1.975 5.114-.407 8.093 1.513 2.875 2.791 3.65 6.043 3.669 4.984.028 7.959-8.69 4.236-12.414-2.391-2.39-8.001-2.02-9.872.652M210 210c-1.111 1.111-2 3.333-2 5 0 7.629 9.562 9.65 12.508 2.644 1.355-3.223.5-7.383-1.821-8.858-2.223-1.414-6.682-.791-8.687 1.214m-115 1c-2.398 2.398-2.567 5.746-.443 8.777 3.114 4.447 11.443 1.496 11.443-4.054 0-6.012-6.794-8.929-11-4.723m27.073.635c-2.225 2.828-2.382 3.611-1.432 7.155.624 2.331 4.965 5.21 7.855 5.21 2.679 0 6.504-4.635 6.504-7.882 0-6.365-8.994-9.484-12.927-4.483" fill="#1976D2" fill-rule="evenodd"/></svg>